<svg width="35" height="35" fill="none" xmlns="http://www.w3.org/2000/svg"><g clip-path="url(#a)"><path fill-rule="evenodd" clip-rule="evenodd" d="M17.444.53c3.155.036 6.006.812 8.551 2.327a17.071 17.071 0 0 1 6.077 6.113c1.505 2.561 2.276 5.428 2.312 8.603-.09 4.343-1.46 8.052-4.11 11.128-2.65 3.076-6.044 4.979-9.558 5.708V22.232h3.322l.751-4.785h-5.03v-3.134a2.723 2.723 0 0 1 .579-1.8c.402-.512 1.11-.782 2.125-.808h3.038V7.513c-.044-.014-.457-.07-1.24-.166a24.662 24.662 0 0 0-2.678-.166c-2.025.009-3.626.58-4.804 1.713-1.178 1.133-1.78 2.772-1.805 4.917v3.636h-3.829v4.785h3.829V34.41c-4.315-.73-7.71-2.632-10.36-5.708-2.65-3.076-4.02-6.785-4.11-11.128.037-3.175.807-6.042 2.313-8.603a17.072 17.072 0 0 1 6.077-6.114c2.545-1.514 5.395-2.29 8.55-2.326Z" fill="#EF4934"/></g><defs><clipPath id="a"><path fill="#fff" d="M0 0h35v35H0z"/></clipPath></defs></svg>